@startuml
class "std::vector<double>" as C_0001416075627737883969
class C_0001416075627737883969 {
}
class "Point" as C_0002166275425153909472
class C_0002166275425153909472 {
+x : double
+y : double
}
class "Edge" as C_0000670296760435837588
class C_0000670296760435837588 {
+p1 : unsigned long
+p2 : unsigned long
+distance : double
}
class "EdgeCompare" as C_0001087390416821502252
class C_0001087390416821502252 {
+operator()(const Edge & e1, const Edge & e2) : bool
}
class "Graph" as C_0001069613870066812431
class C_0001069613870066812431 {
+Graph(unsigned long size) : void
+getWeight(unsigned long i, unsigned long j) const : double
+setWeight(unsigned long i, unsigned long j, double value) : void
+operator==(const Graph & other) const : bool
+operator!=(const Graph & other) const : bool
{static} +sample() : Graph
{static} +random(unsigned long size, unsigned int connections) : Graph
-resize(unsigned long size) : void
+size : const unsigned long &
-_size : unsigned long
-weights : std::vector<double>
}
class "Node" as C_0000218299049716973303
class C_0000218299049716973303 {
+Node() : void
+index : unsigned long
+prev : unsigned long
+visited : bool
+cost : double
}
class "NodeCompare" as C_0000140293027590734614
class C_0000140293027590734614 {
+operator()(const Node * n1, const Node * n2) : bool
}
C_0001087390416821502252 ..> C_0000670296760435837588
C_0001069613870066812431 o-- C_0001416075627737883969 : -weights
C_0000140293027590734614 ..> C_0000218299049716973303

'Generated with clang-uml, version 0.3.4
'LLVM version Ubuntu clang version 15.0.6
@enduml
